<?xml version="1.0" encoding="UTF-8"?>
<svg id="a" xmlns="http://www.w3.org/2000/svg" viewBox="0 0 16 16">
  <defs>
    <style>
      .b {
        fill: #75c12e;
        stroke-width: 0px;
      }
    </style>
  </defs>
  <path class="b" d="M8,1.88c-.24,0-.48.02-.72.05-.07,0-.14.02-.21.03-.17.03-.34.06-.51.1-.07.02-.14.03-.2.05-.18.05-.36.11-.53.18-.04.02-.09.03-.13.05-.22.09-.44.19-.65.31h4.53l-.3,1.46h-3.51l-.44,2.07h2.64l-.33,1.47h-2.63l-.82,3.88h-1.18c.87,1.23,2.19,2.13,3.71,2.46h0l1.65-7.75h2.26c.82,0,1.43.24,1.83.73.42.52.54,1.27.34,2.21-.37,1.77-1.65,2.75-3.61,2.75h-.41l-.46,2.19c.81-.04,1.57-.24,2.27-.56h0c.17-.08.34-.17.5-.26,0,0,.01,0,.02-.01.16-.09.31-.19.45-.3.01,0,.03-.02.04-.03.14-.1.27-.21.4-.32.02-.02.04-.04.06-.05.12-.11.24-.22.35-.33.03-.03.05-.06.08-.08.1-.11.2-.22.3-.34.03-.04.06-.08.09-.12.08-.11.17-.22.24-.34.03-.05.07-.11.1-.16.07-.11.13-.22.19-.33.04-.07.07-.14.1-.21.05-.1.1-.21.15-.31.03-.08.06-.17.09-.25.04-.1.07-.19.1-.29.03-.1.05-.2.08-.31.02-.09.05-.18.07-.27.02-.12.04-.25.06-.37.01-.07.03-.15.03-.22.02-.2.03-.41.03-.61,0-3.37-2.74-6.17-6.12-6.17h0Z"/>
  <path class="b" d="M4.37,3.09c-.75.55-1.36,1.27-1.79,2.1,0,.03-.02.05-.04.08-.09.17-.16.34-.23.52-.02.06-.04.11-.06.17-.05.15-.1.31-.14.46-.02.07-.04.14-.05.21-.04.16-.06.32-.09.48,0,.07-.02.13-.03.2-.03.23-.04.46-.04.69,0,.25.02.5.05.74,0,.06.02.13.03.19.03.19.07.38.11.56,0,.05.03.11.04.16.14.48.33.94.57,1.37l1.68-7.92h0Z"/>
  <path class="b" d="M11.2,9.02v-.06c.11-.49.08-.84-.07-1.03-.13-.16-.38-.24-.77-.24h-.69l-.58,2.76h.47c.87,0,1.45-.51,1.64-1.43Z"/>
  <path class="b" d="M8,0C3.58,0,0,3.58,0,8s3.58,8,8,8,8-3.58,8-8S12.42,0,8,0ZM8,15.06c-3.89,0-7.06-3.17-7.06-7.06S4.11.94,8,.94s7.06,3.17,7.06,7.06-3.17,7.06-7.06,7.06Z"/>
</svg>