<?xml version="1.0" encoding="utf-8"?>
<!-- Generator: Adobe Illustrator 28.3.0, SVG Export Plug-In . SVG Version: 6.00 Build 0)  -->
<svg version="1.1" id="Livello_1" xmlns="http://www.w3.org/2000/svg" xmlns:xlink="http://www.w3.org/1999/xlink" x="0px" y="0px"
	 viewBox="0 0 16 16" style="enable-background:new 0 0 16 16;" xml:space="preserve">
<style type="text/css">
	.st0{fill:#75C12E;}
</style>
<path class="st0" d="M8,0C3.6,0,0,3.1,0,7c0.1,2.6,1.7,5,4.1,6.1V16l3.8-2H8c4.4,0,8-3.1,8-7S12.3,0,8,0z M7.8,11.4
	c-0.6,0-1-0.4-1-1s0.4-1,1-1s1,0.4,1,1S8.4,11.4,7.8,11.4z M9.3,6.8c-0.4,0.4-0.7,1-0.7,1.6v0.2H6.9V8.3c0-0.7,0.4-1.3,0.8-1.9
	C8,5.8,8.4,5.4,8.4,5s-0.3-0.7-1-0.7c-0.5,0-0.9,0.1-1.3,0.4L5.7,3.3C6.4,3,7.1,2.8,7.9,2.8c1.8,0,2.6,0.8,2.6,1.9
	C10.3,5.7,10.1,5.9,9.3,6.8z"/>
</svg>
