<?xml version="1.0" encoding="utf-8"?>
<!-- Generator: Adobe Illustrator 28.3.0, SVG Export Plug-In . SVG Version: 6.00 Build 0)  -->
<svg version="1.1" id="Livello_1" xmlns="http://www.w3.org/2000/svg" xmlns:xlink="http://www.w3.org/1999/xlink" x="0px" y="0px"
	 viewBox="0 0 32 32" style="enable-background:new 0 0 32 32;" xml:space="preserve">
<style type="text/css">
	.st0{fill:#75C12E;}
</style>
<g>
	<polygon class="st0" points="14.9,17.8 13.3,20 13.3,20.2 12.5,21.3 13,21.2 13,21.2 14.8,20.7 21,19.2 21,19.2 22.5,18.8 
		27.7,17.5 26.2,11.4 24.9,13.2 22,11.7 20.2,14.2 20.2,14.2 19.8,14.7 18.7,16.2 18.7,16.2 16.9,18.7 15,17.8 	"/>
	<path class="st0" d="M15,13.4c0.8-0.2,1.4-0.8,1.6-1.5l0,0c0.1-0.3,0.1-0.6,0.1-0.9c0-0.1,0-0.3-0.1-0.4c0-0.1-0.1-0.3-0.1-0.4
		c0,0,0-0.1-0.1-0.1c0-0.1-0.1-0.2-0.1-0.2c0-0.1-0.1-0.1-0.1-0.1c0-0.1-0.1-0.1-0.1-0.2C16,9.6,16,9.5,15.9,9.5c0,0-0.1,0-0.1-0.1
		C15.5,9.1,15,9,14.6,8.9c0,0,0,0,0,0l0,0c-0.2,0-0.5,0-0.7,0.1c-1,0.2-1.6,0.9-1.7,1.8c0,0.1,0,0.2,0,0.4c0,0,0,0,0,0
		c0,0.2,0,0.3,0.1,0.5C12.5,13,13.7,13.7,15,13.4z"/>
	<path class="st0" d="M32,23.4L26.2,0L7.7,4.6L5.9,5.1H5.8l1.3,5.4l-5.8,4L0,15.4l11.2,16.4l7.6-5.2L32,23.4z M8.1,6.4l16.6-4.2
		l4,15.8l0,0l0,0.1l-4.9,1.2l0-0.1l-4.5,1.1l-0.1,0.1l-1.6,0.4l0.1-0.1L12.7,22l0,0l-0.6,0.2L9.2,10.9h0L8.8,9.3l0,0L8.1,6.4z
		 M2.1,15.8l5.4-3.7l0.9,3.8c0,0-0.1,0-0.1,0c-0.4,0-0.7,0.1-1,0.3c-0.9,0.6-1.1,1.8-0.5,2.6c0.4,0.6,1.1,0.9,1.8,0.8
		c0.2,0,0.4-0.1,0.6-0.3l1.1,4.4l-0.6,2.4l1-0.7L11,26l-1.3,0.9L2.1,15.8z"/>
</g>
</svg>
