<?xml version="1.0" encoding="UTF-8"?>
<svg id="a" data-name="Livello 1" xmlns="http://www.w3.org/2000/svg" viewBox="0 0 16 16">
  <path d="M3.5,11.17c-.57,0-1.04.47-1.04,1.04s.47,1.04,1.04,1.04,1.04-.47,1.04-1.04-.47-1.04-1.04-1.04ZM3.5,12.81c-.33,0-.61-.27-.61-.61s.27-.61.61-.61.61.27.61.61-.27.61-.61.61Z" style="fill: #75c12e; stroke-width: 0px;"/>
  <path d="M6.5,8H.5c-.3,0-.5.2-.5.5v7c0,.3.2.5.5.5h6c.3,0,.5-.2.5-.5v-7c0-.3-.2-.5-.5-.5ZM5.7,13.44c0,.23-.18.41-.41.41H1.72c-.23,0-.41-.18-.41-.41v-2.47c0-.23.18-.41.41-.41h.76l.11-.28c.06-.16.21-.27.39-.27h1.08c.17,0,.33.11.39.27l.11.28h.76c.23,0,.41.18.41.41v2.47Z" style="fill: #75c12e; stroke-width: 0px;"/>
  <path d="M3.05,2.12c-.12-.07-.27.02-.27.16v1.57c0,.14.15.22.27.16l1.32-.76c.12-.07.12-.25,0-.32l-1.32-.81Z" style="fill: #75c12e; stroke-width: 0px;"/>
  <path d="M6.5,0H.5C.2,0,0,.2,0,.5v5.1c0,.3.2.5.5.5h6c.3,0,.5-.2.5-.5V.5c0-.3-.2-.5-.5-.5ZM3.5,5.05c-1.1,0-1.98-.89-1.98-1.98s.89-1.98,1.98-1.98,1.98.89,1.98,1.98-.89,1.98-1.98,1.98Z" style="fill: #75c12e; stroke-width: 0px;"/>
  <path d="M15.5,0h-6c-.3,0-.5.2-.5.5v7c0,.3.2.5.5.5h6c.3,0,.5-.2.5-.5V.5c0-.3-.2-.5-.5-.5ZM12.99,5.29c-.22.22-.43.44-.66.65-.35.32-.76.41-1.2.26-.44-.15-.72-.46-.8-.92-.08-.41.04-.76.33-1.06.29-.3.58-.6.89-.88.54-.51,1.43-.4,1.83.23.02.03.02.05,0,.08-.12.12-.24.23-.35.35-.02.02-.04.03-.07.05,0-.02-.01-.03-.02-.04-.15-.4-.65-.53-.96-.23-.23.22-.45.44-.67.67-.06.06-.13.13-.19.19-.24.25-.24.62,0,.85.24.24.61.23.86,0,.09-.09.18-.18.27-.27.01-.01.04-.02.05-.01.23.08.47.11.72.07,0,0,0,0,.01,0,0,0,0,.01,0,.02ZM14.48,3.8c-.29.29-.58.58-.86.86-.46.45-1.23.44-1.68-.02-.06-.06-.11-.14-.16-.21-.02-.02-.02-.04,0-.06.12-.12.24-.24.36-.36.02-.02.05-.04.07-.06.04.11.09.19.16.27.22.22.6.22.82,0,.3-.29.59-.58.88-.88.16-.17.21-.38.13-.6-.08-.22-.24-.36-.47-.4-.21-.04-.39.03-.53.18-.09.09-.18.18-.26.27-.02.02-.03.02-.06.01-.23-.09-.47-.11-.72-.08,0,0,0,0-.02,0,0,0,0-.01.01-.02.22-.22.43-.44.66-.65.35-.32.77-.41,1.22-.25.45.15.71.48.79.95.07.4-.06.75-.34,1.04Z" style="fill: #75c12e; stroke-width: 0px;"/>
  <path d="M15.5,9.8h-6c-.3,0-.5.3-.5.5v5.1c0,.3.2.6.5.6h6c.3,0,.5-.2.5-.5v-5.1c0-.3-.2-.6-.5-.6ZM14.35,13.33s-.04.07-.07.1c-.05.05-.11.05-.16,0-.03-.03.02.03,0,0-.37-.61-.48-.67-.81-.86-.1-.06-.43-.21-.46-.22,0,.03,0,.19,0,.21,0,.53-.01,1.07,0,1.6.01.39-.3.67-.69.8-.29.1-.58.13-.89.04-.26-.07-.46-.21-.51-.43-.05-.19.04-.36.19-.5.25-.24.58-.35.96-.37.1,0,.2.01.3.02.02,0,.04,0,.07,0,0-.04,0-.07,0-.1,0-.84,0-1.68,0-2.53,0-.05,0-.1.03-.15.04-.07.14-.1.23-.09.11.02.19.09.19.18,0,.06,0,.11,0,.17.02.14.12.25.26.34.19.12.38.23.58.34.39.22.66.5.77.87.06.19.07.37,0,.56Z" style="fill: #75c12e; stroke-width: 0px;"/>
</svg>