<?xml version="1.0" encoding="UTF-8"?>
<svg id="Livello_1" data-name="Livello 1" xmlns="http://www.w3.org/2000/svg" viewBox="0 0 16 16">
  <defs>
    <style>
      .cls-1 {
        fill: #75c12e;
        stroke-width: 0px;
      }
    </style>
  </defs>
  <path class="cls-1" d="M6.17,14.74v.43s-.14,0-.14,0H.86v-.19s0-.48,0-.48v-.48s0-.48,0-.48v-.48s0-.48,0-.48v-.48s0-.48,0-.48v-.48s0-.48,0-.48v-.48s0-.48,0-.48v-.48s0-.41,0-.41h.22s.69,0,.69,0c-.02-.18-.03-.37-.03-.56,0-.1.01-.2.01-.29H.5c-.28,0-.5.22-.5.48v7.04c0,.27.22.48.5.48h6c.28,0,.5-.22.5-.48v-1.03c-.29-.05-.57-.1-.84-.19v.44Z"/>
  <path class="cls-1" d="M2.07,10.39v.43s0,.43,0,.43v.43s0,.43,0,.43v.43s0,.43,0,.43v.43s0,.43,0,.43v.07h2.84v-.12c-1.32-.74-2.35-1.95-2.86-3.41v.04Z"/>
  <path class="cls-1" d="M3.46,1.99h-1.38v2.17h1.21c.47-.54,1.03-.99,1.65-1.34h0v-.82h-1.47Z"/>
  <path class="cls-1" d="M.5,6.14h1.6c.1-.27.21-.54.35-.79H.83V.79h5.33v1.48c.27-.08.55-.14.83-.19V.5c0-.28-.22-.5-.5-.5H.5C.22,0,0,.22,0,.5v5.14c0,.28.22.5.5.5Z"/>
  <path class="cls-1" d="M13.93,5.6v-.42s0-.43,0-.43v-.43s0-.43,0-.43v-.42s0-.43,0-.43v-.43s0-.43,0-.43v-.06s-.9,0-.9,0h-1.34s-.61,0-.61,0v.25s0,.41,0,.41c1.22.69,2.19,1.77,2.73,3.07h.12v-.27Z"/>
  <path class="cls-1" d="M15.5.01h-6c-.28,0-.5.22-.5.49v1.59c.29.05.57.11.84.19v-.06s0-.48,0-.48v-.47s0-.4,0-.4h.25s1.49,0,1.49,0h1.49s1.49-.02,1.49-.02h.58s0,.18,0,.18v.47s0,.48,0,.48v.47s0,.48,0,.48v.48s0,.47,0,.47v.48s0,.47,0,.47v.48s0,.47,0,.47v.48s0,.47,0,.47v.43s-.16,0-.16,0h-.83c.05.27.08.55.09.83h1.23c.28,0,.5-.22.5-.49V.5c0-.27-.22-.49-.5-.49Z"/>
  <path class="cls-1" d="M15.5,9.85h-1.42c-.07.27-.15.53-.26.79h1.34v4.53h-5.33v-.87c-.27.08-.55.14-.83.19v.97c0,.27.22.5.5.5h6c.28,0,.5-.22.5-.5v-5.11c0-.28-.22-.5-.5-.5Z"/>
  <path class="cls-1" d="M11.07,13.76v.2h2.86v-2.14h-.74c-.55.8-1.27,1.46-2.12,1.93Z"/>
  <path class="cls-1" d="M13,8.29c0-2.76-2.24-5-5-5s-5,2.24-5,5,2.24,5,5,5,5-2.24,5-5ZM11.14,9.86c0,.16-.13.29-.29.29h-3.39c-.16.34-.5.57-.9.57s-.74-.23-.9-.57h-.53c-.16,0-.29-.13-.29-.29v-.29c0-.16.13-.29.29-.29h.53c.16-.34.5-.57.9-.57s.74.23.9.57h3.39c.16,0,.29.13.29.29v.29ZM11.14,7c0,.16-.13.29-.29.29h-.53c-.16.34-.5.57-.9.57s-.74-.23-.9-.57h-3.39c-.16,0-.29-.13-.29-.29v-.29c0-.16.13-.29.29-.29h3.39c.16-.34.5-.57.9-.57s.74.23.9.57h.53c.16,0,.29.13.29.29v.29Z"/>
  <circle class="cls-1" cx="9.43" cy="6.86" r=".29"/>
  <circle class="cls-1" cx="6.57" cy="9.71" r=".29"/>
</svg>