<?xml version="1.0" encoding="UTF-8"?>
<svg id="Livello_1" data-name="Livello 1" xmlns="http://www.w3.org/2000/svg" viewBox="0 0 16 16">
  <defs>
    <style>
      .cls-1 {
        fill: #75c12e;
        stroke-width: 0px;
      }
    </style>
  </defs>
  <g id="Livello_9" data-name="Livello 9">
    <path class="cls-1" d="M12.99,2.8s.02-.03.03-.05c.27-.48.28-1.06.02-1.58-.36-.72-1.13-1.17-2-1.17-1.4,0-2.51.97-3.05,1.55-.54-.58-1.64-1.55-3.05-1.55-.87,0-1.64.45-2,1.17-.26.52-.25,1.1.02,1.58.01.02.02.04.03.05l.03.04h9.93l.03-.04ZM4.76,2.4c-.51,0-.86-.11-.98-.32-.12-.21-.06-.42,0-.56.15-.3.55-.65,1.21-.65.92,0,1.71.57,2.2,1.05-.68.22-1.65.48-2.44.48ZM12.3,2.09c-.12.21-.46.32-.98.32-.79,0-1.76-.26-2.44-.48.5-.48,1.29-1.05,2.2-1.05.65,0,1.06.35,1.21.65.07.14.13.35,0,.56Z"/>
    <path class="cls-1" d="M15.02,3.19H.98c-.17,0-.31.1-.31.22v2.4c0,.09.11.17.24.17h14.19c.13,0,.24-.07.24-.17v-2.4c0-.12-.14-.22-.31-.22Z"/>
    <path class="cls-1" d="M1.41,6.91v8.78c0,.17.14.3.32.3h12.76c.18,0,.32-.14.32-.3V6.91H1.41ZM7.63,11.63v3.06c0,.05-.04.09-.09.09h-2.69c-.05,0-.09-.04-.09-.09v-3.12c0-.05.04-.09.09-.09h2.69c.05,0,.09.04.09.09v.06ZM7.63,10.49c0,.05-.04.09-.09.09h-2.69c-.05,0-.09-.04-.09-.09v-2.32c0-.05.04-.09.09-.09h2.69c.05,0,.09.04.09.09v2.32ZM11.46,14.69c0,.05-.04.09-.09.09h-2.69c-.05,0-.09-.04-.09-.09v-2.31c0-.05.04-.09.09-.09h2.69c.05,0,.09.04.09.09v2.31ZM11.46,8.24v3.04c0,.05-.04.09-.09.09h-2.69c-.05,0-.09-.04-.09-.09v-3.1c0-.05.04-.09.09-.09h2.69c.05,0,.09.04.09.09v.06Z"/>
  </g>
</svg>