<?xml version="1.0" encoding="utf-8"?>
<!-- Generator: Adobe Illustrator 28.3.0, SVG Export Plug-In . SVG Version: 6.00 Build 0)  -->
<svg version="1.1" id="Livello_2_00000019648880404073094630000005918857829479587714_"
	 xmlns="http://www.w3.org/2000/svg" xmlns:xlink="http://www.w3.org/1999/xlink" x="0px" y="0px" viewBox="0 0 16 16"
	 style="enable-background:new 0 0 16 16;" xml:space="preserve">
<style type="text/css">
	.st0{fill:#75C12E;}
</style>
<g>
	<path class="st0" d="M6.5,0h-6C0.2,0,0,0.2,0,0.5v5.1c0,0.3,0.2,0.5,0.5,0.5h6C6.8,6.1,7,5.9,7,5.6V0.5C7,0.2,6.8,0,6.5,0z M6.1,2
		v2.2v1.2H4.9H2.1H0.9V4.1V2V0.8h1.2H5h1.1L6.1,2L6.1,2z"/>
	<rect x="2.1" y="2" class="st0" width="2.9" height="2.2"/>
	<path class="st0" d="M15.5,0h-6C9.2,0,9,0.2,9,0.5v7C9,7.7,9.2,8,9.5,8h6C15.8,8,16,7.7,16,7.5v-7C16,0.2,15.8,0,15.5,0z M15.1,2
		v3.9v1.2h-1.2H11H9.9V5.9V2V0.8h1.2H14h1.1L15.1,2L15.1,2z"/>
	<rect x="11.1" y="2" class="st0" width="2.9" height="3.9"/>
	<path class="st0" d="M15.5,9.9h-6C9.2,9.9,9,10.1,9,10.4v5.1C9,15.8,9.2,16,9.5,16h6c0.3,0,0.5-0.2,0.5-0.5v-5.1
		C16,10.1,15.8,9.9,15.5,9.9z M15.1,11.8V14v1.2h-1.2H11H9.9V14v-2.2v-1.2h1.2H14h1.1L15.1,11.8L15.1,11.8z"/>
	<rect x="11.1" y="11.8" class="st0" width="2.9" height="2.2"/>
	<path class="st0" d="M6.5,8h-6C0.2,8,0,8.3,0,8.5v7C0,15.8,0.2,16,0.5,16h6C6.8,16,7,15.8,7,15.5v-7C7,8.3,6.8,8,6.5,8z M6.1,10.1
		V14v1.2H4.9H2.1H0.9V14v-3.9V8.9h1.2H5h1.1L6.1,10.1L6.1,10.1z"/>
	<rect x="2.1" y="10.1" class="st0" width="2.9" height="3.9"/>
</g>
</svg>
