<?xml version="1.0" encoding="UTF-8"?>
<svg id="Livello_1" data-name="Livello 1" xmlns="http://www.w3.org/2000/svg" viewBox="0 0 16 16">
  <defs>
    <style>
      .cls-1 {
        fill: #75c12e;
        stroke-width: 0px;
      }
    </style>
  </defs>
  <polygon class="cls-1" points="13.74 0 2.43 0 0 1.94 .18 1.94 16 1.94 13.74 0"/>
  <path class="cls-1" d="M15.5,2.65H0v13.35h16V2.65h-.5ZM8,4.12c1.4,0,2.53,1.13,2.53,2.53s-1.13,2.53-2.53,2.53-2.53-1.13-2.53-2.53,1.13-2.53,2.53-2.53ZM11.48,14.25h-6.95c-.55,0-.96-.46-.96-1.01.18-1.67,1.22-3.04,2.65-3.7.32.66,1,1.17,1.78,1.17s1.46-.51,1.78-1.17c1.43.66,2.47,2.03,2.65,3.7,0,.56-.41,1.01-.96,1.01Z"/>
</svg>