<svg xmlns="http://www.w3.org/2000/svg" viewBox="0 0 16 16"><path d="M7.1,9.1A1.1,1.1,0,1,0,8.2,8,1,1,0,0,0,7.1,9.1Z" style="fill:#75c12e"/><path d="M8.3,10.9a.79.79,0,0,1-.8-.5A2.2,2.2,0,0,0,6.3,12c0,.2.2.5.4.5H9.8a.46.46,0,0,0,.4-.5A2,2,0,0,0,9,10.4.94.94,0,0,1,8.3,10.9Z" style="fill:#75c12e"/><path d="M15.5,2.8H0V16H16V2.8ZM12.9,7.4v5.7a.47.47,0,0,1-.5.5H3.8a.47.47,0,0,1-.5-.5V5.7a.47.47,0,0,1,.5-.5H6.7l1.2,1h5Z" style="fill:#75c12e"/><polygon points="13.7 0 2.4 0 0 1.9 0.2 1.9 16 1.9 13.7 0" style="fill:#75c12e"/></svg>