<?xml version="1.0" encoding="UTF-8"?>
<svg id="a" data-name="Livello 1" xmlns="http://www.w3.org/2000/svg" viewBox="0 0 16 16">
  <polygon points="13.7 0 2.4 0 0 1.9 .2 1.9 16 1.9 13.7 0" style="fill: #75c12e; stroke-width: 0px;"/>
  <path d="M15.5,2.8H0v13.2h16V2.8h-.5ZM3.23,12.21v-4.16l2.73,1.75-2.72,2.52s-.01-.08-.01-.11ZM12.09,12.89H3.96s-.09,0-.14-.01l2.83-2.63,1.37.88,1.32-.86,2.82,2.62s-.05,0-.08,0ZM12.81,12.21c0,.06,0,.11-.02.17l-2.75-2.56,2.78-1.8v4.19ZM12.81,7.08l-4.79,3.11-4.79-3.08v-.25c0-.38.33-.68.73-.68h8.13c.4,0,.73.31.73.68v.23Z" style="fill: #75c12e; stroke-width: 0px;"/>
</svg>