<?xml version="1.0" encoding="utf-8"?>
<!-- Generator: Adobe Illustrator 26.3.1, SVG Export Plug-In . SVG Version: 6.00 Build 0)  -->
<svg version="1.1" id="Livello_1" xmlns="http://www.w3.org/2000/svg" xmlns:xlink="http://www.w3.org/1999/xlink" x="0px" y="0px"
	 viewBox="0 0 16 16" style="enable-background:new 0 0 16 16;" xml:space="preserve">
<style type="text/css">
	.st0{fill:#75C12E;}
</style>
<polygon class="st0" points="13.7,0 2.4,0 0,1.9 0.2,1.9 16,1.9 "/>
<path class="st0" d="M15.5,2.8H0V16h16V2.8H15.5z M10.5,7.4c0-0.3,0.2-0.6,0.6-0.6c0.1,0,0.3,0,0.4,0c0.2,0,0.3,0,0.5,0
	c0.4,0,0.6,0.2,0.6,0.6v4.3c0,0.4-0.2,0.6-0.6,0.6l-0.1,0c-0.3,0-0.5,0-0.8,0c-0.3,0-0.6-0.2-0.6-0.6C10.5,10.3,10.5,8.9,10.5,7.4z
	 M7.1,5.7c0-0.4,0.2-0.6,0.6-0.6c0.1,0,0.2,0,0.3,0c0.1,0,0.2,0,0.2,0l0.2,0c0.5,0,0.7,0.2,0.7,0.6v6c0,0.4-0.2,0.6-0.6,0.6l-0.3,0
	c-0.2,0-0.4,0-0.6,0c-0.3,0-0.6-0.2-0.6-0.6C7.1,9.8,7.1,7.7,7.1,5.7z M3.6,9.2c0-0.3,0.2-0.6,0.6-0.6c0.2,0,0.3,0,0.5,0
	c0.2,0,0.3,0,0.5,0c0.3,0,0.6,0.2,0.6,0.6c0,0.3,0,0.6,0,0.9l0,0.4l0,0.4l0,0.9c0,0.4-0.2,0.6-0.6,0.6c-0.3,0-0.6,0-0.9,0
	c-0.4,0-0.6-0.2-0.6-0.6C3.6,10.9,3.6,10,3.6,9.2z M13.3,13.6c0,0-0.1,0-0.1,0c-1.7,0-3.4,0-5.1,0c-1.7,0-3.4,0-5.1,0
	c0,0-0.1,0-0.1,0c-0.2,0-0.3-0.1-0.3-0.3c0-0.1,0.1-0.3,0.3-0.3c0,0,0.1,0,0.1,0c3.4,0,6.8,0,10.3,0c0.1,0,0.3,0,0.3,0.2
	C13.7,13.4,13.5,13.6,13.3,13.6z"/>
</svg>
