<?xml version="1.0" encoding="UTF-8"?>
<svg id="a" data-name="Livello 1" xmlns="http://www.w3.org/2000/svg" viewBox="0 0 16 16">
  <polygon points="13.7 0 2.4 0 0 1.9 .2 1.9 16 1.9 13.7 0" style="fill: #75c12e; stroke-width: 0px;"/>
  <path d="M15.5,2.8H0v13.2h16V2.8h-.5ZM4.34,6.13c.32-.86,1.83-1.52,3.65-1.52s3.33.65,3.65,1.52c.02.04.03.11.04.18.02.1-.01.21-.08.29-.37.48-.91.78-1.15.87-.61.31-1.49.51-2.47.51s-1.86-.2-2.47-.51c-.24-.09-.78-.39-1.15-.87-.06-.08-.09-.19-.08-.29.01-.07.03-.14.04-.18ZM11.71,12.52c0,1.03-1.66,1.86-3.72,1.86s-3.72-.83-3.72-1.86v-1.87c.23.29.56.52.93.71.73.37,1.72.58,2.78.58s2.05-.22,2.78-.58c.37-.18.7-.42.93-.71v1.87ZM11.71,9.53c0,.23-.83.74-1.24,1-.61.31-1.49.51-2.47.51s-1.86-.2-2.47-.51c-.55-.27-1.24-.77-1.24-1v-1.87c.23.29.56.52.93.71.73.37,1.72.58,2.78.58s2.05-.22,2.78-.58c.37-.18.7-.42.93-.71v1.87Z" style="fill: #75c12e; stroke-width: 0px;"/>
</svg>