<?xml version="1.0" encoding="UTF-8"?>
<svg id="Livello_1" data-name="Livello 1" xmlns="http://www.w3.org/2000/svg" viewBox="0 0 16 16">
  <defs>
    <style>
      .cls-1 {
        fill: #75c12e;
        stroke-width: 0px;
      }
    </style>
  </defs>
  <path class="cls-1" d="M15.25,8.58s-1.21-.7-1.37-.8c-.16-.09-.2-.09-.37,0-.17.09-4.9,2.84-4.9,2.84-.18.1-.4.15-.63.15s-.46-.05-.63-.15c0,0-4.6-2.67-4.82-2.8-.24-.14-.3-.14-.51-.02-.22.13-1.31.76-1.31.76-.35.2-.35.53,0,.73l6.64,3.86c.17.1.4.15.63.15s.46-.05.63-.15l6.64-3.86c.36-.2.36-.53.01-.73Z"/>
  <path class="cls-1" d="M15.23,11.27s-.08-.04-.19-.11c-.06,0-.12.03-.22.08-.06.03-.62.34-1.37.75l-4.36,2.49c-.31.18-.7.27-1.11.27s-.81-.1-1.11-.27l-4.63-2.65c-.54-.3-.93-.51-.99-.54-.17-.09-.26-.13-.36-.12-.1.06-.17.1-.17.1-.35.2-.35.53,0,.73l.16.1,6.66,3.81s.1.04.16.06c.09.02.18.03.27.03h0c.1,0,.2-.01.3-.03.07-.02.12-.04.15-.06l5.72-3.28,1.09-.63c.36-.2.36-.53,0-.73Z"/>
  <path class="cls-1" d="M15.72,4.25L8.67.16C8.49.06,8.24,0,8,0s-.49.06-.67.16L.28,4.25c-.37.21-.37.57,0,.78l7.05,4.09c.18.1.43.16.67.16s.49-.06.67-.16l7.05-4.09c.37-.22.37-.57,0-.78ZM6.05,6.3c-.57-.04-1.02-.35-1-.69.02-.34.5-.59,1.07-.55.57.04,1.03.35,1.01.69-.02.34-.5.59-1.08.55ZM9.76,6.31h-.13s-1.33-.1-1.33-.1h-.13s0-.08,0-.08c.02-.44-.24-.88-.74-1.22-.51-.35-1.19-.56-1.93-.61h-.13s0-.08,0-.08l.05-.79v-.08s.13,0,.13,0c1.16.08,2.24.42,3.03.97.79.55,1.21,1.23,1.17,1.92v.07ZM12.13,6.24h-.12s-1.33-.1-1.33-.1h-.13s0-.08,0-.08c.04-.76-.41-1.51-1.28-2.1-.87-.6-2.04-.97-3.31-1.05h-.13s0-.08,0-.08l.05-.79v-.08s.13,0,.13,0c3.49.23,6.23,2.12,6.11,4.2v.08Z"/>
</svg>