<?xml version="1.0" encoding="UTF-8"?><svg id="a" xmlns="http://www.w3.org/2000/svg" viewBox="0 0 256 256"><path d="M127.95,93.54h-.01c-6.58,0-12.82,1.22-18.64,3.64l9.91,9.91c8.22-3.43,18.06-1.8,24.75,4.89,6.69,6.69,8.33,16.53,4.89,24.75l12.52,12.52c8.68-7.91,13.64-17.18,15.54-21.21l.02-.04-.02-.04c-3.79-8.08-18.55-34.42-48.97-34.42Z" fill="#7ec242" stroke-width="0"/><path d="M229.57,51.35c.05-4.13-1.3-6.24-5.11-7.96-30.87-13.98-61.66-28.13-92.4-42.4-3.12-1.45-5.5-1.21-8.46.15-30.3,14.02-60.61,28.01-91.03,41.76-4.43,2-6.19,4.34-6.15,9.34.24,31.15.49,62.31,0,93.46-.38,23.83,8.28,43.41,25.46,59.48,5.13,4.8,10.45,9.56,16.28,13.43,19.02,12.59,38.28,24.81,57.58,36.97,1.21.77,3.89.4,5.26-.44,13-7.99,25.88-16.19,38.78-24.35,14.07-8.89,27.82-18.19,39.17-30.56,11.81-12.88,19.66-27.68,20.16-45.39.48-17.07.1-34.16.1-51.25.08,0,.16,0,.25,0,0-17.42-.12-34.84.09-52.26ZM63.6,135.27l-3.32-7.06,48.39,48.39c-27.36-8.32-41.06-32.79-45.07-41.33ZM127.95,179.46c-.15,0-.28-.02-.43-.02l-62.17-62.17c2.06-3.82,5.21-8.99,9.58-14.37l73.4,73.4c-6.47,2.1-13.28,3.17-20.38,3.17ZM190.25,197.07c.34-.33.69-.64,1.03-.97-.34.33-.69.64-1.03.97ZM192.3,135.27c-2.32,4.93-8.33,16.15-18.89,26,0,0-3.95,3.63-8.08,6.54-3.02,2.14-7.84,4.57-7.84,4.57l-78.17-75.01s3.63-3.91,8.35-7.34c4.73-3.42,8.92-5.57,8.92-5.57,9.58-5.26,20.11-7.92,31.36-7.92,40.42,0,59.47,33.82,64.35,44.18l3.42,7.27-3.42,7.27h0Z" fill="#7ec242" stroke-width="0"/></svg>