<?xml version="1.0" encoding="UTF-8"?><svg id="a" xmlns="http://www.w3.org/2000/svg" width="256" height="256" viewBox="0 0 256 256"><path d="M218.62,175.01c-2.21.5-4.07,1.99-5.02,4.05-12.73,27.64-41.5,45.66-73.88,45.66-19.7,0-38.57-6.72-52.57-18.52-1.74-1.46-4.06-2.03-6.27-1.53h0c-5.24,1.17-6.93,7.84-2.84,11.33,16.39,14.02,38.47,22.1,61.69,22.1,37.98,0,71.56-21.47,86.28-54.01,2.22-4.91-2.12-10.26-7.39-9.08h0Z" fill="#7fc242" stroke-width="0"/><path d="M24.18,140.35c3.8,3.98,7.46,7.81,11.12,11.63,4.51,4.71,9.01,9.41,13.53,14.11.77.8,1.36,1.97,2.75.51,8.29-8.74,16.65-17.42,24.95-26.08-.42-.99-1.16-.64-1.72-.66-6.34-.17-9.35-3.07-8.99-9.35,1.51-26.26,14.2-45.88,36.72-58.67,36.85-20.92,83.48-5.5,101.32,32.97,19.96,43.04-6.61,94.34-53.11,102.33-14.19,2.44-28.21,1.35-41.35-4.81-15.68-7.35-28.16-18.41-35.98-34.18-1.12-2.27-1.81-2.23-3.41-.49-4.48,4.87-9.08,9.64-13.68,14.39-3.91,4.05-8,4.01-11.9-.06-13.82-14.42-27.6-28.87-41.46-43.25-2.43-2.52-3.83-5.19-2.43-8.63,1.4-3.44,4.24-4.51,7.76-4.42,3.2.08,6.42-.19,9.6.06,2.51.2,3.2-.71,3.45-3.1,1.74-16.94,6.85-32.83,15.74-47.34,18.86-30.76,46.02-49.85,81.6-55.8,51.96-8.69,102.67,18.15,125.22,65.59,5.64,11.87,9.11,24.39,10.53,37.46.42,3.81-1.04,6.67-4.01,7.98-2.81,1.23-5.43.79-7.73-1.26-1.62-1.44-2.07-3.38-2.31-5.46-2.55-21.3-10.71-40.16-24.82-56.31C169.47,14.73,86.05,21.97,49.73,81.9c-8.79,14.5-13.96,30.17-14.56,47.24-.22,6.24-2.98,9.05-10.99,11.22ZM150.83,115.14c2.94-.03,4.93-1.54,5.93-4.39,1.04-2.94,0-5.29-2.21-7.11-1.8-1.49-3.96-2.5-6.17-3.29-4.86-1.73-4.92-1.7-5.11-6.91-.09-2.69-1.34-4.56-3.79-5.32-2.26-.7-4.41-.2-6.02,1.81-1.25,1.55-1.35,3.38-1.12,5.17.38,2.99-.66,4.35-3.68,5.33-7.43,2.43-11.7,7.94-12.88,15.64-1.15,7.46,1.14,13.64,7.29,18.29,2.91,2.2,6.11,3.86,9.3,5.56,3.37,1.79,6.91,3.31,9.8,5.91,2.58,2.32,3.3,5.19,2.2,8.39-1.02,2.95-3.44,4.1-6.43,4.41-4.52.47-8.6-.69-12.57-2.75-3.74-1.94-7.58-.79-9.33,2.55-1.88,3.58-.61,7.36,3.29,9.32,2.17,1.09,4.3,2.2,6.74,2.73,4.55.74,6.65,2.17,6.41,7.53-.13,2.95,2.62,5.07,5.51,4.97,4-.1,5.04-2.23,5.24-5.37.06-.96.08-1.79.01-2.88-.15-2.38.43-3.42,2.92-4.2,8.16-2.56,12.94-8.37,14.17-16.83,1.2-8.22-1.61-14.84-8.51-19.67-3.6-2.52-7.6-4.26-11.48-6.24-2.47-1.25-4.94-2.46-7-4.38-2.11-1.96-2.52-4.28-1.71-7,.73-2.47,2.48-3.6,4.8-4.11,3.48-.77,6.8-.29,9.87,1.48,1.43.82,2.87,1.37,4.52,1.33Z" fill="#7fc242" stroke-width="0"/><path d="M256,166.06c-.09,3.83-3.18,6.91-6.91,6.89-3.94-.02-7.17-3.24-7.13-7.09.05-3.94,3.26-7.1,7.16-7.03,4,.07,6.97,3.19,6.87,7.23Z" fill="#7fc242" stroke-width="0"/><path d="M248.48,138.12c3.92-.05,7.07,3.07,7.12,7.05.04,3.86-3.2,7.06-7.14,7.06-3.68,0-6.87-3.17-6.98-6.92-.11-3.85,3.09-7.14,7-7.19Z" fill="#7fc242" stroke-width="0"/></svg>