<?xml version="1.0" encoding="UTF-8"?><svg id="a" xmlns="http://www.w3.org/2000/svg" width="14.67" height="15.99" viewBox="0 0 14.67 15.99"><path d="M12.32,2.8s.02-.03.03-.05c.27-.48.28-1.06.02-1.58-.36-.72-1.13-1.17-2-1.17-1.4,0-2.51.97-3.05,1.55-.54-.58-1.64-1.55-3.05-1.55-.87,0-1.64.45-2,1.17-.26.52-.25,1.1.02,1.58,0,.02.02.04.03.05l.03.04h9.93l.03-.04h.01ZM4.09,2.4c-.51,0-.86-.11-.98-.32s-.06-.42,0-.56c.15-.3.55-.65,1.21-.65.92,0,1.71.57,2.2,1.05-.68.22-1.65.48-2.44.48h0ZM11.63,2.09c-.12.21-.46.32-.98.32-.79,0-1.76-.26-2.44-.48.5-.48,1.29-1.05,2.2-1.05.65,0,1.06.35,1.21.65.07.14.13.35,0,.56h.01Z" fill="#fff" stroke-width="0"/><path d="M14.35,3.19H.31c-.17,0-.31.1-.31.22v2.4c0,.09.11.17.24.17h14.19c.13,0,.24-.07.24-.17v-2.4c0-.12-.14-.22-.31-.22h0Z" fill="#fff" stroke-width="0"/><path d="M.74,6.91v8.78c0,.17.14.3.32.3h12.76c.18,0,.32-.14.32-.3V6.91H.74ZM7.42,8.44c.83,0,1.49.67,1.49,1.49s-.67,1.49-1.49,1.49-1.49-.67-1.49-1.49.67-1.49,1.49-1.49ZM9.47,14.41h-4.1c-.32,0-.57-.27-.57-.6.11-.99.72-1.79,1.57-2.18.19.39.59.69,1.05.69s.86-.3,1.05-.69c.84.39,1.46,1.2,1.57,2.18,0,.33-.24.6-.57.6Z" fill="#fff" stroke-width="0"/></svg>