<svg xmlns="http://www.w3.org/2000/svg" xmlns:xlink="http://www.w3.org/1999/xlink" id="a" data-name="Livello 1" viewBox="0 0 297.72 284.13"><defs><style>      .c {        fill: url(#b);        stroke-width: 0px;      }    </style><linearGradient id="b" data-name="Sfumatura senza nome 5" x1="98.05" y1="2.41" x2="199.7" y2="281.68" gradientUnits="userSpaceOnUse"><stop offset="0" stop-color="#fecf64"></stop><stop offset="1" stop-color="#f3966a"></stop></linearGradient></defs><path class="c" d="M293.24,130.78c-4.97-6.87-9.94-13.74-14.99-20.56-3.99-5.4-6.02-11.36-5.92-18.12.13-8.86.06-17.72.02-26.57-.05-8.89-3.87-14.16-12.37-17-8.27-2.76-16.54-5.51-24.88-8.08-6.71-2.06-11.97-5.88-16.03-11.6-5.05-7.12-10.25-14.14-15.43-21.16-5.39-7.31-11.3-9.23-19.95-6.49-8.31,2.63-16.63,5.25-24.88,8.06-6.77,2.31-13.38,2.24-20.14-.09-8.24-2.85-16.56-5.45-24.88-8.06-8.41-2.64-14.44-.63-19.65,6.47-5.16,7.04-10.36,14.05-15.4,21.18-4.04,5.72-9.31,9.57-15.99,11.67-8.32,2.61-16.59,5.37-24.87,8.08-8.64,2.82-12.47,8.08-12.5,17.26-.03,8.23-.2,16.47.05,24.7.23,7.83-1.97,14.66-6.74,20.87-5.08,6.63-9.9,13.46-14.77,20.25-5.25,7.33-5.25,13.67.01,20.99,5.17,7.19,10.36,14.36,15.63,21.48,4,5.41,6,11.4,5.83,18.15-.11,4.11-.02,8.23-.02,12.35,0,4.62-.02,9.23,0,13.85.05,9.25,4,14.53,12.88,17.39,8.3,2.67,16.55,5.49,24.87,8.09,6.44,2.01,11.51,5.74,15.42,11.22,5.14,7.21,10.37,14.36,15.62,21.48,5.21,7.06,11.31,9.06,19.67,6.43,8.67-2.73,17.32-5.54,25.96-8.37,5.88-1.93,11.74-2.06,17.63-.15,8.53,2.77,17.06,5.54,25.59,8.3,9.14,2.96,15.26,1.02,20.92-6.69,4.94-6.73,9.95-13.43,14.72-20.29,4.31-6.21,10.01-10.24,17.22-12.42,8.11-2.45,16.16-5.09,24.19-7.77,8.42-2.81,12.24-8.17,12.28-17.09.04-8.48.18-16.97-.04-25.45-.2-7.58,2.07-14.15,6.64-20.15,4.91-6.45,9.58-13.08,14.33-19.64,5.93-8.18,5.93-14.27-.04-22.53Z"></path></svg>