<?xml version="1.0" encoding="UTF-8"?><svg id="b" xmlns="http://www.w3.org/2000/svg" width="192.5mm" height="171.4mm" xmlns:xlink="http://www.w3.org/1999/xlink" viewBox="0 0 545.66 485.86"><defs><linearGradient id="d" x1="0" y1="242.93" x2="545.66" y2="242.93" gradientUnits="userSpaceOnUse"><stop offset="0" stop-color="#f3976a"/><stop offset="1" stop-color="#fecf64"/></linearGradient></defs><g id="c"><path d="M249.93.63c-32.5,2.52-64.17,12.64-93.41,27.28C86.62,62.9,29.19,126.3,8.28,202.68c-20.91,76.38-1.94,164.67,53.98,219.86,44.45,43.86,108.06,64.22,169.96,63.29s122.25-21.63,177.14-50.76c26.38-14,52.02-30.21,72.9-51.78,56.38-58.26,73.89-153.44,57.56-231.8-14.98-71.9-82.04-89.41-141.6-117.53C351.89,12.07,301.52-3.36,249.93.63Z" fill="url(#d)" stroke-width="0"/><path d="M266.48,438.94c-32.4,0-62.37-4.37-89.58-13.09-53.01-16.98-96.26-51.66-118.67-95.12-28.85-55.97-22.85-130.95,14.93-186.58,35.12-51.71,96.43-87.94,164-96.92,29.17-3.87,56.61-2.62,81.56,3.72,36.69,9.33,72.42,30.84,109.22,65.77,6.07,5.76,12.44,11.46,18.6,16.97,35.52,31.8,69.08,61.83,63.1,113.14-8.28,71.06-51.25,137.72-106.94,165.87-19.25,9.73-41.34,16.19-71.64,20.95-22.45,3.53-44.01,5.29-64.59,5.29ZM269.5,46.86c-10.42,0-21.13.73-32.09,2.18-67.06,8.92-127.9,44.85-162.73,96.13-37.42,55.09-43.38,129.32-14.82,184.7,22.18,43.04,65.05,77.38,117.6,94.22,44.22,14.17,95.8,16.76,153.32,7.73,30.11-4.73,52.04-11.14,71.11-20.77,55.16-27.88,97.73-93.97,105.94-164.44,5.86-50.37-27.35-80.09-62.51-111.56-6.17-5.52-12.55-11.23-18.64-17.01-36.57-34.71-72.03-56.08-108.41-65.33-15.36-3.9-31.68-5.86-48.77-5.86Z" fill="#fff" stroke-width="0"/><path d="M295.48,453.1c-48.81,0-99.48-17.32-141.07-49.14-22.52-17.24-40.37-36.79-53.05-58.12h0c-18.65-31.36-28.34-70.38-29.61-119.28-.21-8.06-.67-16.29-1.11-24.24-2.54-45.88-4.94-89.22,34.11-120.13,54.07-42.8,128.8-58.94,185.94-40.17,19.75,6.48,39.21,17.14,63.11,34.55,45.59,33.21,79.15,70.35,99.76,110.39,24.55,47.7,30.4,100.81,16.05,145.72-18.48,57.82-73.68,104.84-137.35,116.99-12.02,2.3-24.34,3.42-36.77,3.42ZM239.76,36.12c-45.76,0-95.14,16.87-133.86,47.51-38.31,30.32-35.93,73.19-33.42,118.59.44,7.97.9,16.21,1.11,24.3,1.27,48.57,10.87,87.3,29.36,118.38h0c12.56,21.13,30.26,40.51,52.59,57.6,51.77,39.62,117.7,56.58,176.38,45.38,63.03-12.04,117.66-58.55,135.95-115.75,14.21-44.44,8.4-97.05-15.93-144.32-20.47-39.78-53.85-76.7-99.2-109.74-23.74-17.29-43.05-27.87-62.6-34.29-15.71-5.16-32.77-7.65-50.36-7.65Z" fill="#fff" stroke-width="0"/><path d="M243.53,459.61c-3.02,0-6.03-.09-9.04-.27-58.08-3.52-114.79-43.7-141.12-99.98-24.47-52.31-24.29-118.1.49-176,10.69-24.99,24.65-46.19,41.47-63h0s0,0,0,0c24.74-24.73,58.69-42.94,103.81-55.67,7.44-2.1,14.97-4.46,22.26-6.75,42.03-13.19,81.73-25.65,119.66,3.34,52.52,40.13,85.16,105.74,81.21,163.26-1.36,19.87-6.67,40.47-17.19,66.79-20.09,50.19-46.67,90.14-79,118.73-35.96,31.8-80.14,49.58-122.55,49.58ZM328.85,45.46c-21.62,0-43.9,7-66.9,14.21-7.3,2.29-14.85,4.66-22.31,6.77-44.81,12.64-78.5,30.7-103.01,55.2h0c-16.66,16.65-30.48,37.65-41.08,62.43-24.57,57.43-24.77,122.66-.51,174.5,26.05,55.69,82.13,95.44,139.56,98.93,44.62,2.71,92.1-15.1,130.26-48.85,32.11-28.39,58.52-68.11,78.51-118.03,10.46-26.13,15.72-46.55,17.07-66.23,3.91-56.93-28.44-121.9-80.49-161.67-16.61-12.69-33.64-17.26-51.1-17.26Z" fill="#fff" stroke-width="0"/></g></svg>