<?xml version="1.0" encoding="utf-8"?>
<!-- Generator: Adobe Illustrator 28.3.0, SVG Export Plug-In . SVG Version: 6.00 Build 0)  -->
<svg version="1.1" id="Livello_1" xmlns="http://www.w3.org/2000/svg" xmlns:xlink="http://www.w3.org/1999/xlink" x="0px" y="0px"
	 viewBox="0 0 24 24" style="enable-background:new 0 0 24 24;" xml:space="preserve">
<path d="M12,0C5.4,0,0,5.4,0,12s5.4,12,12,12s12-5.4,12-12S18.6,0,12,0z M18.3,12.4c0,0.5-0.4,0.9-0.9,0.9c-0.5,0-0.9-0.4-0.9-0.9
	V8.8L7.2,18c-0.2,0.2-0.4,0.3-0.6,0.3S6.1,18.2,6,18c-0.3-0.3-0.3-0.9,0-1.3l9.3-9.3h-3.6c-0.5,0-0.9-0.4-0.9-0.9s0.4-0.9,0.9-0.9
	h5.8c0.5,0,0.9,0.4,0.9,0.9V12.4z"/>
</svg>
