<?xml version="1.0" encoding="utf-8"?>
<svg version="1.1" xmlns="http://www.w3.org/2000/svg" xmlns:xlink="http://www.w3.org/1999/xlink" x="0px" y="0px"
	 viewBox="0 0 32 32" style="enable-background:new 0 0 32 32;" xml:space="preserve">
<g>
	<path d="M3.8,5.3L0,8.3h16.6c0.1-1.1,0.4-2.1,0.8-3C17.4,5.3,3.8,5.3,3.8,5.3z"/>
	<g>
		<path d="M17.8,22.7c-0.3,0-0.6,0.1-0.8,0.3c-0.2,0.2-0.4,0.5-0.4,0.8s0.1,0.6,0.3,0.8c0.2,0.2,0.5,0.3,0.8,0.3
			c0.3,0,0.6-0.1,0.8-0.3c0.2-0.2,0.3-0.5,0.3-0.8s-0.1-0.6-0.4-0.8C18.4,22.8,18.2,22.7,17.8,22.7z"/>
		<path d="M9.2,16.3c-0.6,0-1.2,0.2-1.6,0.7c-0.5,0.5-0.7,1-0.7,1.7c0,0.6,0.2,1.2,0.7,1.6c0.5,0.5,1,0.7,1.6,0.7s1.2-0.2,1.7-0.7
			c0.5-0.5,0.7-1,0.7-1.6c0-0.6-0.2-1.2-0.7-1.7C10.4,16.5,9.8,16.3,9.2,16.3z"/>
		<path d="M16.6,9.4L16.6,9.4H0V30h24.7V17.4C20.3,17.2,16.8,13.8,16.6,9.4z M13.9,22c-0.1,0.2-0.4,0.5-0.8,0.8
			c-0.4,0.4-0.6,0.5-0.7,0.5c-0.1,0-0.1,0-0.2-0.1l-1.1-0.8c-0.2,0.1-0.5,0.2-0.7,0.3c-0.1,0.7-0.1,1.1-0.2,1.4
			c0,0.1-0.1,0.2-0.3,0.2H8.3c-0.1,0-0.1,0-0.2-0.1c0,0-0.1-0.1-0.1-0.2l-0.2-1.4c-0.2-0.1-0.4-0.1-0.7-0.3l-1.1,0.8
			c0,0-0.1,0.1-0.2,0.1c-0.1,0-0.1,0-0.2-0.1c-0.9-0.8-1.3-1.3-1.3-1.5c0,0,0-0.1,0.1-0.2c0.1-0.1,0.2-0.2,0.4-0.5s0.3-0.4,0.4-0.6
			C5.1,20.4,5,20.1,5,19.9l-1.4-0.2c-0.1,0-0.1,0-0.2-0.1c0-0.1-0.1-0.1-0.1-0.2v-1.7c0-0.1,0-0.1,0.1-0.2c0.1-0.1,0.1-0.1,0.2-0.1
			L5,17.2C5,17,5.1,16.8,5.3,16.5c-0.2-0.3-0.5-0.6-0.8-1.1c0-0.1-0.1-0.1-0.1-0.2c0-0.1,0-0.1,0.1-0.2c0.1-0.2,0.4-0.5,0.8-0.8
			s0.6-0.5,0.7-0.5c0.1,0,0.1,0,0.2,0.1l1.1,0.8c0.2-0.1,0.4-0.2,0.7-0.3C7.9,13.7,8,13.2,8.1,13c0-0.2,0.1-0.2,0.3-0.2H10
			c0.1,0,0.1,0,0.2,0.1c0,0,0.1,0.1,0.1,0.2l0.2,1.4c0.2,0.1,0.4,0.2,0.7,0.3l1.1-0.8c0,0,0.1-0.1,0.2-0.1s0.1,0,0.2,0.1
			c0.9,0.8,1.3,1.3,1.3,1.5c0,0,0,0.1-0.1,0.2c-0.1,0.1-0.2,0.3-0.4,0.5c-0.2,0.2-0.3,0.4-0.4,0.6c0.1,0.3,0.2,0.5,0.3,0.8l1.4,0.2
			c0.1,0,0.1,0.1,0.2,0.1c0,0,0.1,0.1,0.1,0.2v1.7c0,0.1,0,0.1-0.1,0.2c-0.1,0.1-0.1,0.1-0.2,0.1L13.4,20c-0.1,0.2-0.2,0.4-0.3,0.7
			c0.2,0.3,0.5,0.6,0.8,1c0,0.1,0.1,0.1,0.1,0.2C14,21.9,14,22,13.9,22z M21.3,24.5c0,0.1-0.5,0.2-1.4,0.3c-0.1,0.2-0.2,0.3-0.3,0.5
			c0.3,0.7,0.5,1.1,0.5,1.3c0,0,0,0,0,0.1C19.4,27,19,27.2,19,27.2c0,0-0.2-0.1-0.4-0.4c-0.2-0.3-0.4-0.5-0.5-0.6
			c-0.1,0-0.2,0-0.3,0s-0.1,0-0.3,0c-0.1,0.1-0.2,0.3-0.5,0.6c-0.2,0.3-0.4,0.4-0.4,0.4c0,0-0.4-0.2-1.1-0.6c0,0,0,0,0-0.1
			c0-0.2,0.2-0.6,0.5-1.3c-0.1-0.2-0.2-0.3-0.3-0.5c-0.9-0.1-1.4-0.2-1.4-0.3v-1.3c0-0.1,0.5-0.2,1.4-0.3c0.1-0.2,0.2-0.3,0.3-0.5
			c-0.3-0.7-0.5-1.1-0.5-1.3c0,0,0,0,0-0.1c0,0,0.1-0.1,0.3-0.2c0.2-0.1,0.4-0.2,0.5-0.3c0.2-0.1,0.3-0.1,0.3-0.1
			c0,0,0.2,0.1,0.4,0.4c0.2,0.3,0.4,0.5,0.5,0.6c0.1,0,0.2,0,0.3,0s0.2,0,0.3,0c0.3-0.4,0.6-0.8,0.8-1l0,0c0,0,0.4,0.2,1.1,0.6
			c0,0,0,0,0,0.1c0,0.2-0.2,0.6-0.5,1.3c0.1,0.1,0.2,0.3,0.3,0.5c0.9,0.1,1.4,0.2,1.4,0.3V24.5z"/>
	</g>
</g>
<path d="M25.1,15.9c3.8,0,6.9-3.1,6.9-6.9S28.9,2,25.1,2s-6.9,3.1-6.9,6.9S21.2,15.9,25.1,15.9z M21.4,8.7c0-0.3,0.2-0.5,0.5-0.5
	s0.5,0.2,0.5,0.5v2.1l5.4-5.4c0.1-0.1,0.2-0.2,0.4-0.2s0.3,0.1,0.4,0.2c0.2,0.2,0.2,0.5,0,0.7l-5.4,5.4h2.1c0.3,0,0.5,0.2,0.5,0.5
	s-0.2,0.5-0.5,0.5h-3.4c-0.3,0-0.5-0.2-0.5-0.5L21.4,8.7L21.4,8.7z"/>
</svg>
