<?xml version="1.0" encoding="UTF-8"?>
<svg xmlns="http://www.w3.org/2000/svg" viewBox="0 0 32 32">
  <g>
    <path d="M3.75,5.32l-3.75,2.99h16.6c.08-1.07.35-2.07.79-2.99H3.75Z"/>
    <path d="M16.59,9.41H0v20.6h24.69v-12.6c-4.36-.19-7.86-3.65-8.09-8ZM8.44,15.58c0-2.16,1.74-3.9,3.9-3.92,2.16,0,3.92,1.73,3.93,3.9.02,2.18-1.73,3.92-3.9,3.93-2.16,0-3.92-1.73-3.93-3.9v-.02ZM17.64,27.31H6.9c-.85.05-1.56-.62-1.6-1.47v-.09c.28-2.5,1.85-4.68,4.17-5.69.76,1.56,2.64,2.21,4.2,1.45.63-.31,1.14-.82,1.45-1.45,2.28,1.03,3.84,3.21,4.09,5.69,0,.86-.69,1.56-1.56,1.56Z"/>
  </g>
  <path d="M25.06,15.88c3.83,0,6.94-3.11,6.94-6.94s-3.11-6.94-6.94-6.94-6.94,3.11-6.94,6.94,3.11,6.94,6.94,6.94ZM21.41,8.71c0-.28.24-.52.52-.52s.52.24.52.52v2.1l5.36-5.36c.1-.1.24-.15.37-.15s.26.05.37.15c.2.2.2.53,0,.74l-5.36,5.36h2.1c.28,0,.52.24.52.52s-.24.52-.52.52h-3.35c-.28,0-.52-.24-.52-.52v-3.35Z"/>
</svg>