<?xml version="1.0" encoding="utf-8"?>
<svg version="1.1" xmlns="http://www.w3.org/2000/svg" xmlns:xlink="http://www.w3.org/1999/xlink" x="0px" y="0px"
	 viewBox="0 0 16 16" style="enable-background:new 0 0 16 16;" xml:space="preserve">
<polygon points="13.7,0 2.4,0 0,1.9 0.2,1.9 16,1.9 "/>
<path d="M0,2.7V16h16V2.7H0z M8,4.1c1.4,0,2.5,1.1,2.5,2.5S9.4,9.2,8,9.2c-1.4,0-2.5-1.1-2.5-2.5c0,0,0,0,0,0
	C5.5,5.3,6.6,4.1,8,4.1z M11.4,14.3h-7c-0.5,0-1-0.4-1-0.9c0,0,0,0,0-0.1c0.2-1.6,1.2-3,2.7-3.7c0.5,1,1.7,1.4,2.7,0.9
	c0.4-0.2,0.7-0.5,0.9-0.9c1.5,0.7,2.5,2.1,2.7,3.7C12.4,13.8,12,14.3,11.4,14.3C11.4,14.3,11.4,14.3,11.4,14.3z"/>
</svg>
