<?xml version="1.0" encoding="UTF-8"?>
<svg xmlns="http://www.w3.org/2000/svg" viewBox="0 0 32 32">
    <g>
      <path d="M1.75,17.66c0,4.19,2.44,7.81,5.97,9.53L2.67,13.35c-.59,1.32-.92,2.77-.92,4.31Z"/>
      <path d="M17.09,8.2c-1.43-.72-3.04-1.12-4.75-1.12-3.7,0-6.95,1.9-8.85,4.77.25,0,.48.01.68.01,1.11,0,2.82-.13,2.82-.13.57-.03.64.8.07.87,0,0-.57.07-1.21.1l3.86,11.47,2.32-6.95-1.65-4.52c-.57-.03-1.11-.1-1.11-.1-.57-.03-.5-.91.07-.87,0,0,1.75.13,2.79.13,1.11,0,2.82-.13,2.82-.13.57-.03.64.8.07.87,0,0-.57.07-1.21.1l3.83,11.38,1.06-3.53c.46-1.46.81-2.52.81-3.42,0-1.31-.47-2.21-.87-2.92-.52-.85-1.01-1.58-1.03-2.42-.34-.89-.53-1.84-.53-2.85,0-.25.01-.5.04-.74Z"/>
      <path d="M15.86,27.65s-.05-.09-.08-.15l-3.26-8.92-3.18,9.23c.95.28,1.95.43,2.99.43,1.23,0,2.42-.21,3.52-.6Z"/>
      <path d="M20.9,17.46l-3.23,9.35c3.15-1.84,5.27-5.25,5.27-9.15,0-.35-.03-.69-.07-1.03-.52-.15-1.02-.35-1.5-.59-.12.45-.26.92-.47,1.43Z"/>
      <path d="M24.12,17.66c0,6.49-5.28,11.78-11.78,11.78S.57,24.16.57,17.66,5.85,5.88,12.34,5.88c1.77,0,3.45.41,4.96,1.11.05-.19.1-.37.15-.55-1.56-.71-3.29-1.12-5.12-1.12C5.54,5.32,0,10.85,0,17.66s5.54,12.34,12.34,12.34,12.34-5.54,12.34-12.34c0-.25-.02-.5-.04-.74-.19,0-.38-.02-.57-.04.02.26.04.52.04.79Z"/>
    </g>
  <g>
    <path d="M25.06,15.88c3.83,0,6.94-3.11,6.94-6.94s-3.11-6.94-6.94-6.94-6.94,3.11-6.94,6.94,3.11,6.94,6.94,6.94ZM21.41,8.71c0-.28.24-.52.52-.52s.52.24.52.52v2.1l5.36-5.36c.1-.1.24-.15.37-.15s.26.05.37.15c.2.2.2.53,0,.74l-5.36,5.36h2.1c.28,0,.52.24.52.52s-.24.52-.52.52h-3.35c-.28,0-.52-.24-.52-.52v-3.35Z"/>
  </g>
</svg>